<svg width="25" height="25" viewBox="0 0 25 25" fill="none" xmlns="http://www.w3.org/2000/svg">
<path d="M12.4999 16.6667C13.605 16.6667 14.6648 16.2277 15.4462 15.4463C16.2276 14.6649 16.6666 13.6051 16.6666 12.5C16.6666 11.395 16.2276 10.3352 15.4462 9.55376C14.6648 8.77236 13.605 8.33337 12.4999 8.33337C11.3948 8.33337 10.335 8.77236 9.55364 9.55376C8.77224 10.3352 8.33325 11.395 8.33325 12.5C8.33325 13.6051 8.77224 14.6649 9.55364 15.4463C10.335 16.2277 11.3948 16.6667 12.4999 16.6667Z" stroke="white" stroke-width="1.5625" stroke-linecap="round" stroke-linejoin="round"/>
<path d="M3.125 16.6667V8.33333C3.125 6.952 3.67373 5.62724 4.65049 4.65049C5.62724 3.67373 6.952 3.125 8.33333 3.125H16.6667C18.048 3.125 19.3728 3.67373 20.3495 4.65049C21.3263 5.62724 21.875 6.952 21.875 8.33333V16.6667C21.875 18.048 21.3263 19.3728 20.3495 20.3495C19.3728 21.3263 18.048 21.875 16.6667 21.875H8.33333C6.952 21.875 5.62724 21.3263 4.65049 20.3495C3.67373 19.3728 3.125 18.048 3.125 16.6667Z" stroke="white" stroke-width="1.5625"/>
<path d="M18.2292 6.78078L18.2392 6.76978" stroke="white" stroke-width="1.5625" stroke-linecap="round" stroke-linejoin="round"/>
</svg>
