<svg width="25" height="25" viewBox="0 0 25 25" fill="none" xmlns="http://www.w3.org/2000/svg">
<path fill-rule="evenodd" clip-rule="evenodd" d="M6.02921 14.6042C6.07426 14.6181 6.1202 14.6288 6.16671 14.6365C6.46142 15.3309 6.75448 16.0261 7.04588 16.7219C7.56983 17.974 8.09796 19.2636 8.21358 19.6344C8.35838 20.0907 8.51046 20.4011 8.67713 20.6136C8.76358 20.7219 8.86254 20.8177 8.97921 20.8907C9.04047 20.9278 9.1054 20.9585 9.17296 20.9823C9.50629 21.1073 9.81046 21.0552 10.0011 20.9917C10.113 20.9537 10.2195 20.9011 10.3178 20.8354L10.323 20.8334L13.2667 18.9979L16.6678 21.6042C16.7178 21.6424 16.7719 21.6747 16.8303 21.7011C17.2386 21.8782 17.6344 21.9407 18.0073 21.8907C18.3782 21.8386 18.673 21.6834 18.8927 21.5073C19.1449 21.3037 19.3461 21.044 19.4803 20.749L19.4896 20.7261L19.4927 20.7177L19.4948 20.7136V20.7115L19.4959 20.7104C19.513 20.6653 19.5269 20.619 19.5375 20.5719L22.6417 4.92086C22.6503 4.87059 22.6552 4.81976 22.6563 4.76878C22.6563 4.31044 22.4834 3.87398 22.0782 3.61044C21.7303 3.3844 21.3438 3.37398 21.099 3.39273C20.8365 3.41357 20.5928 3.47815 20.4292 3.53023C20.3378 3.55974 20.2475 3.5924 20.1584 3.62815L20.1469 3.63336L2.7365 10.4625L2.73442 10.4636C2.67538 10.4849 2.61733 10.5089 2.56046 10.5354C2.42235 10.5974 2.2899 10.6713 2.16463 10.7563C1.92817 10.9177 1.38338 11.3615 1.47608 12.0948C1.549 12.6782 1.949 13.0375 2.19379 13.2104C2.32713 13.3052 2.45421 13.3729 2.54796 13.4177C2.58963 13.4386 2.67921 13.474 2.71775 13.4907L2.72817 13.4938L6.02921 14.6042ZM20.7563 5.07086H20.7542L20.7271 5.08232L3.29588 11.9209L3.26879 11.9313L3.25838 11.9344C3.22646 11.9467 3.19517 11.9606 3.16463 11.9761C3.19375 11.9924 3.22365 12.0074 3.25421 12.0209L6.52713 13.1229C6.58491 13.1443 6.64069 13.1708 6.69379 13.2021L17.5032 6.87398L17.5136 6.86878C17.5558 6.84365 17.5989 6.82002 17.6428 6.79794C17.7178 6.7594 17.8375 6.70315 17.973 6.66148C18.0667 6.63232 18.3448 6.55003 18.6448 6.6469C18.8042 6.69662 18.9463 6.79038 19.0546 6.91737C19.163 7.04436 19.2333 7.1994 19.2573 7.36461C19.2961 7.50914 19.2972 7.66121 19.2605 7.80628C19.1875 8.09273 18.9875 8.31565 18.8053 8.48648C18.649 8.63232 16.6219 10.5865 14.623 12.5157L11.9011 15.1407L11.4167 15.6094L17.5334 20.299C17.616 20.3335 17.7056 20.3478 17.7948 20.3407C17.8398 20.3345 17.882 20.3157 17.9167 20.2865C17.9589 20.2508 17.9951 20.2086 18.024 20.1615L18.0261 20.1604L21.0365 4.98023C20.9418 5.00355 20.8489 5.03348 20.7584 5.06982L20.7563 5.07086ZM11.9428 17.9813L10.7219 17.0459L10.4261 18.9261L11.9428 17.9813ZM9.60213 15.1896L10.8157 14.0177L13.5375 11.3907L14.5511 10.4136L7.75942 14.3896L7.79588 14.475C8.22422 15.4869 8.64783 16.5008 9.06671 17.5167L9.3615 15.6417C9.38841 15.4679 9.4732 15.3093 9.60213 15.1896Z" fill="white"/>
</svg>
