<svg width="24" height="24" viewBox="0 0 24 24" fill="none" xmlns="http://www.w3.org/2000/svg">
<path fill-rule="evenodd" clip-rule="evenodd" d="M5.78783 14.02C5.83107 14.0333 5.87518 14.0437 5.91983 14.051C6.20275 14.7177 6.48408 15.385 6.76383 16.053C7.26683 17.255 7.77383 18.493 7.88483 18.849C8.02383 19.287 8.16983 19.585 8.32983 19.789C8.41283 19.893 8.50783 19.985 8.61983 20.055C8.67863 20.0907 8.74096 20.1201 8.80583 20.143C9.12583 20.263 9.41783 20.213 9.60083 20.152C9.70827 20.1155 9.81047 20.0651 9.90483 20.002L9.90983 20L12.7358 18.238L16.0008 20.74C16.0488 20.7767 16.1008 20.8077 16.1568 20.833C16.5488 21.003 16.9288 21.063 17.2868 21.015C17.6428 20.965 17.9258 20.816 18.1368 20.647C18.3789 20.4515 18.572 20.2022 18.7008 19.919L18.7098 19.897L18.7128 19.889L18.7148 19.885V19.883L18.7158 19.882C18.7322 19.8386 18.7456 19.7942 18.7558 19.749L21.7358 4.724C21.7441 4.67574 21.7487 4.62695 21.7498 4.578C21.7498 4.138 21.5838 3.719 21.1948 3.466C20.8608 3.249 20.4898 3.239 20.2548 3.257C20.0028 3.277 19.7688 3.339 19.6118 3.389C19.5241 3.41733 19.4374 3.44868 19.3518 3.483L19.3408 3.488L2.62683 10.044L2.62483 10.045C2.56815 10.0655 2.51242 10.0885 2.45783 10.114C2.32524 10.1735 2.19809 10.2444 2.07783 10.326C1.85083 10.481 1.32783 10.907 1.41683 11.611C1.48683 12.171 1.87083 12.516 2.10583 12.682C2.23383 12.773 2.35583 12.838 2.44583 12.881C2.48583 12.901 2.57183 12.935 2.60883 12.951L2.61883 12.954L5.78783 14.02ZM19.9258 4.868H19.9238L19.8978 4.879L3.16383 11.444L3.13783 11.454L3.12783 11.457C3.09719 11.4688 3.06715 11.4822 3.03783 11.497C3.06579 11.5127 3.09449 11.5271 3.12383 11.54L6.26583 12.598C6.3213 12.6186 6.37485 12.644 6.42583 12.674L16.8028 6.599L16.8128 6.594C16.8533 6.56988 16.8947 6.5472 16.9368 6.526C17.0088 6.489 17.1238 6.435 17.2538 6.395C17.3438 6.367 17.6108 6.288 17.8988 6.381C18.0518 6.42873 18.1882 6.51874 18.2922 6.64065C18.3963 6.76256 18.4637 6.9114 18.4868 7.07C18.5241 7.20875 18.5251 7.35474 18.4898 7.494C18.4198 7.769 18.2278 7.983 18.0528 8.147C17.9028 8.287 15.9568 10.163 14.0378 12.015L11.4248 14.535L10.9598 14.985L16.8318 19.487C16.9111 19.5201 16.9972 19.5338 17.0828 19.527C17.126 19.5211 17.1665 19.5031 17.1998 19.475C17.2403 19.4407 17.2751 19.4002 17.3028 19.355L17.3048 19.354L20.1948 4.781C20.1039 4.80338 20.0147 4.83212 19.9278 4.867L19.9258 4.868ZM11.4648 17.262L10.2928 16.364L10.0088 18.169L11.4648 17.262ZM9.21783 14.582L10.3828 13.457L12.9958 10.935L13.9688 9.997L7.44883 13.814L7.48383 13.896C7.89503 14.8674 8.30171 15.8408 8.70383 16.816L8.98683 15.016C9.01266 14.8491 9.09405 14.6969 9.21783 14.582Z" fill="white"/>
</svg>
